<svg width="24" height="24" viewBox="0 0 24 24" fill="none" xmlns="http://www.w3.org/2000/svg">
<path d="M5.82635 19C5.71216 18.9998 5.59925 18.9758 5.49482 18.9296C5.39039 18.8834 5.29671 18.816 5.21974 18.7316C5.14138 18.6479 5.08159 18.5486 5.04428 18.4402C5.00698 18.3318 4.993 18.2168 5.00327 18.1026L5.20493 15.8846L14.5205 6.56976L17.4318 9.48096L8.11862 18.795L5.90125 18.9967C5.87635 18.999 5.85135 19.0001 5.82635 19ZM18.0129 8.89889L15.1024 5.98769L16.8482 4.24146C16.9246 4.16492 17.0154 4.10419 17.1153 4.06276C17.2153 4.02133 17.3224 4 17.4305 4C17.5387 4 17.6458 4.02133 17.7457 4.06276C17.8456 4.10419 17.9364 4.16492 18.0129 4.24146L19.7586 5.98769C19.8351 6.06415 19.8958 6.15495 19.9373 6.2549C19.9787 6.35485 20 6.46198 20 6.57018C20 6.67837 19.9787 6.7855 19.9373 6.88545C19.8958 6.9854 19.8351 7.0762 19.7586 7.15266L18.0137 8.89807L18.0129 8.89889Z" fill="#2B2B2B"/>
</svg>
