<svg width="32" height="32" viewBox="0 0 32 32" fill="none" xmlns="http://www.w3.org/2000/svg">
<path d="M32 16C32 24.8366 24.8366 32 16 32C7.16343 32 0 24.8366 0 16C0 7.16344 7.16343 0 16 0C19.8185 0 23.3246 1.33766 26.0753 3.56995L22.9943 5.85943C21.0075 4.48655 18.5976 3.68244 16 3.68244C9.19723 3.68244 3.68245 9.1972 3.68245 16C3.68245 22.8027 9.19723 28.3176 16 28.3176C22.8027 28.3176 28.3176 22.8027 28.3176 16C28.3176 15.9134 28.3166 15.8272 28.315 15.7411L31.7533 13.186C31.9154 14.0996 32 15.0399 32 16Z" fill="#21A038"/>
<path d="M32 16C32 24.8366 24.8366 32 16 32C7.16343 32 0 24.8366 0 16C0 7.16344 7.16343 0 16 0C19.8185 0 23.3246 1.33766 26.0753 3.56995L22.9943 5.85943C21.0075 4.48655 18.5976 3.68244 16 3.68244C9.19723 3.68244 3.68245 9.1972 3.68245 16C3.68245 22.8027 9.19723 28.3176 16 28.3176C22.8027 28.3176 28.3176 22.8027 28.3176 16C28.3176 15.9134 28.3166 15.8272 28.315 15.7411L31.7533 13.186C31.9154 14.0996 32 15.0399 32 16Z" fill="url(#paint0_radial_4887_107453)"/>
<path d="M32 16C32 24.8366 24.8366 32 16 32C7.16343 32 0 24.8366 0 16C0 7.16344 7.16343 0 16 0C19.8185 0 23.3246 1.33766 26.0753 3.56995L22.9943 5.85943C21.0075 4.48655 18.5976 3.68244 16 3.68244C9.19723 3.68244 3.68245 9.1972 3.68245 16C3.68245 22.8027 9.19723 28.3176 16 28.3176C22.8027 28.3176 28.3176 22.8027 28.3176 16C28.3176 15.9134 28.3166 15.8272 28.315 15.7411L31.7533 13.186C31.9154 14.0996 32 15.0399 32 16Z" fill="url(#paint1_radial_4887_107453)"/>
<path d="M32 16C32 24.8366 24.8366 32 16 32C7.16343 32 0 24.8366 0 16C0 7.16344 7.16343 0 16 0C19.8185 0 23.3246 1.33766 26.0753 3.56995L22.9943 5.85943C21.0075 4.48655 18.5976 3.68244 16 3.68244C9.19723 3.68244 3.68245 9.1972 3.68245 16C3.68245 22.8027 9.19723 28.3176 16 28.3176C22.8027 28.3176 28.3176 22.8027 28.3176 16C28.3176 15.9134 28.3166 15.8272 28.315 15.7411L31.7533 13.186C31.9154 14.0996 32 15.0399 32 16Z" fill="url(#paint2_radial_4887_107453)"/>
<path d="M32 16C32 24.8366 24.8366 32 16 32C7.16343 32 0 24.8366 0 16C0 7.16344 7.16343 0 16 0C19.8185 0 23.3246 1.33766 26.0753 3.56995L22.9943 5.85943C21.0075 4.48655 18.5976 3.68244 16 3.68244C9.19723 3.68244 3.68245 9.1972 3.68245 16C3.68245 22.8027 9.19723 28.3176 16 28.3176C22.8027 28.3176 28.3176 22.8027 28.3176 16C28.3176 15.9134 28.3166 15.8272 28.315 15.7411L31.7533 13.186C31.9154 14.0996 32 15.0399 32 16Z" fill="url(#paint3_linear_4887_107453)"/>
<path d="M32 16C32 24.8366 24.8366 32 16 32C7.16343 32 0 24.8366 0 16C0 7.16344 7.16343 0 16 0C19.8185 0 23.3246 1.33766 26.0753 3.56995L22.9943 5.85943C21.0075 4.48655 18.5976 3.68244 16 3.68244C9.19723 3.68244 3.68245 9.1972 3.68245 16C3.68245 22.8027 9.19723 28.3176 16 28.3176C22.8027 28.3176 28.3176 22.8027 28.3176 16C28.3176 15.9134 28.3166 15.8272 28.315 15.7411L31.7533 13.186C31.9154 14.0996 32 15.0399 32 16Z" fill="url(#paint4_radial_4887_107453)"/>
<path d="M32 16C32 24.8366 24.8366 32 16 32C7.16343 32 0 24.8366 0 16C0 7.16344 7.16343 0 16 0C19.8185 0 23.3246 1.33766 26.0753 3.56995L22.9943 5.85943C21.0075 4.48655 18.5976 3.68244 16 3.68244C9.19723 3.68244 3.68245 9.1972 3.68245 16C3.68245 22.8027 9.19723 28.3176 16 28.3176C22.8027 28.3176 28.3176 22.8027 28.3176 16C28.3176 15.9134 28.3166 15.8272 28.315 15.7411L31.7533 13.186C31.9154 14.0996 32 15.0399 32 16Z" fill="url(#paint5_radial_4887_107453)"/>
<path d="M30.6156 9.4021C30.079 8.26606 29.4479 7.19311 28.6906 6.21484L16.0045 15.5242L9.91406 11.7058V16.3131L16.0361 20.1631L30.6156 9.4021Z" fill="#21A038"/>
<defs>
<radialGradient id="paint0_radial_4887_107453" cx="0" cy="0" r="1" gradientUnits="userSpaceOnUse" gradientTransform="translate(5.66909 25.081) rotate(-89.8417) scale(16.0018)">
<stop stop-color="#F3EA14"/>
<stop offset="1" stop-color="#5DBC89"/>
</radialGradient>
<radialGradient id="paint1_radial_4887_107453" cx="0" cy="0" r="1" gradientUnits="userSpaceOnUse" gradientTransform="translate(5.49227 24.9925) rotate(-45) scale(44.0748)">
<stop stop-color="#F3EA14" stop-opacity="0.58"/>
<stop offset="0.255498" stop-color="#F3EA14" stop-opacity="0.3"/>
<stop offset="1" stop-color="#F3EA14" stop-opacity="0"/>
</radialGradient>
<radialGradient id="paint2_radial_4887_107453" cx="0" cy="0" r="1" gradientUnits="userSpaceOnUse" gradientTransform="translate(29.5832 19.8648) rotate(150.488) scale(18.8445)">
<stop stop-color="#21A038"/>
<stop offset="1" stop-color="#21A038" stop-opacity="0"/>
</radialGradient>
<linearGradient id="paint3_linear_4887_107453" x1="16" y1="2.1392" x2="16" y2="17.6256" gradientUnits="userSpaceOnUse">
<stop stop-color="#0199F9"/>
<stop offset="0.296875" stop-color="#0199F8" stop-opacity="0.54"/>
<stop offset="1" stop-color="#0198F7" stop-opacity="0"/>
</linearGradient>
<radialGradient id="paint4_radial_4887_107453" cx="0" cy="0" r="1" gradientUnits="userSpaceOnUse" gradientTransform="translate(26.4213 3.57356) rotate(180) scale(15.5803 4.31817)">
<stop stop-color="#0D8BCC"/>
<stop offset="1" stop-color="#0D8BCC" stop-opacity="0"/>
</radialGradient>
<radialGradient id="paint5_radial_4887_107453" cx="0" cy="0" r="1" gradientUnits="userSpaceOnUse" gradientTransform="translate(29.5832 19.8648) rotate(150.488) scale(18.8445)">
<stop stop-color="#21A038"/>
<stop offset="1" stop-color="#21A038" stop-opacity="0"/>
</radialGradient>
</defs>
</svg>
