<svg width="32" height="32" viewBox="0 0 32 32" fill="none" xmlns="http://www.w3.org/2000/svg">
<path d="M15.5341 3.25117C15.6654 3.1638 15.8196 3.11719 15.9773 3.11719C16.1351 3.11719 16.2893 3.1638 16.4205 3.25117C19.4411 5.28749 22.8844 6.61193 26.4909 7.12477C26.6815 7.15211 26.8558 7.24725 26.9819 7.39272C27.108 7.5382 27.1774 7.72426 27.1774 7.91677V15.1168C27.1774 21.3424 23.4862 25.8848 16.2653 28.664C16.08 28.7355 15.8747 28.7355 15.6893 28.664C8.47014 25.8848 4.77734 21.3408 4.77734 15.1168V7.91677C4.77737 7.72402 4.84699 7.53777 4.9734 7.39225C5.0998 7.24674 5.27449 7.15176 5.46534 7.12477C9.07138 6.6117 12.514 5.28726 15.5341 3.25117Z" fill="#7A7A7A"/>
<path fill-rule="evenodd" clip-rule="evenodd" d="M21.0769 11.4258C20.7925 11.4258 20.5385 11.5375 20.3557 11.7204L13.9658 18.1204L11.6395 15.7839C11.4566 15.601 11.2027 15.4893 10.9182 15.4893C10.3595 15.4893 9.90234 15.9464 9.90234 16.5051C9.90234 16.7896 10.0141 17.0436 10.1969 17.2264L13.2446 20.274C13.4274 20.4569 13.6814 20.5686 13.9658 20.5686C14.2503 20.5686 14.5042 20.4569 14.6871 20.274L21.7982 13.1629C21.9811 12.9801 22.0928 12.7261 22.0928 12.4417C22.0928 11.8829 21.6357 11.4258 21.0769 11.4258Z" fill="white"/>
</svg>
